<?xml version="1.0" encoding="utf-8"?>
<!-- Generator: Adobe Illustrator 16.0.0, SVG Export Plug-In . SVG Version: 6.00 Build 0)  -->
<!DOCTYPE svg PUBLIC "-//W3C//DTD SVG 1.1//EN" "http://www.w3.org/Graphics/SVG/1.1/DTD/svg11.dtd">
<svg version="1.1" id="Capa_1" xmlns="http://www.w3.org/2000/svg" xmlns:xlink="http://www.w3.org/1999/xlink" x="0px" y="0px"
	 width="191.916px" height="33.216px" viewBox="0 0 191.916 33.216" enable-background="new 0 0 191.916 33.216"
	 xml:space="preserve">
<g>
	<path fill="#7FBF6D" d="M46.622,29.401c-0.065-0.066-0.099-0.15-0.099-0.252v-6.328c0-0.102,0.033-0.186,0.099-0.252
		c0.066-0.066,0.15-0.099,0.252-0.099h1.621c0.678,0,1.283,0.149,1.817,0.45c0.534,0.3,0.95,0.715,1.247,1.246
		s0.445,1.136,0.445,1.813c0,0.679-0.148,1.284-0.445,1.817c-0.297,0.535-0.713,0.951-1.247,1.252
		c-0.534,0.299-1.14,0.449-1.817,0.449h-1.621C46.772,29.499,46.688,29.465,46.622,29.401z M48.495,28.87
		c0.545,0,1.031-0.125,1.457-0.375c0.426-0.248,0.76-0.592,1-1.029c0.239-0.438,0.359-0.934,0.359-1.485s-0.12-1.047-0.359-1.485
		c-0.24-0.438-0.574-0.779-1-1.025S49.04,23.1,48.495,23.1h-1.27v5.77H48.495z"/>
	<path fill="#7FBF6D" d="M56.639,24.841c0.342,0.207,0.607,0.493,0.796,0.86c0.188,0.365,0.284,0.782,0.284,1.25
		c0,0.096-0.031,0.172-0.09,0.23c-0.061,0.057-0.139,0.084-0.234,0.084h-3.637c0.049,0.492,0.24,0.893,0.576,1.197
		c0.336,0.307,0.756,0.459,1.26,0.459c0.217,0,0.434-0.037,0.652-0.111c0.22-0.076,0.395-0.17,0.527-0.283
		c0.078-0.061,0.158-0.09,0.242-0.09c0.066,0,0.133,0.023,0.199,0.07c0.077,0.072,0.116,0.154,0.116,0.244
		c0,0.078-0.032,0.146-0.099,0.207c-0.198,0.168-0.45,0.307-0.756,0.418c-0.307,0.111-0.601,0.166-0.883,0.166
		c-0.479,0-0.908-0.105-1.287-0.318c-0.377-0.213-0.673-0.51-0.886-0.891c-0.214-0.383-0.319-0.813-0.319-1.293
		c0-0.485,0.1-0.919,0.301-1.3c0.201-0.382,0.48-0.679,0.838-0.892c0.356-0.213,0.764-0.318,1.219-0.318
		C55.904,24.532,56.297,24.635,56.639,24.841z M54.326,25.575c-0.3,0.282-0.483,0.654-0.549,1.116h3.294
		c-0.049-0.462-0.217-0.834-0.504-1.116c-0.288-0.281-0.657-0.423-1.107-0.423C55.004,25.152,54.625,25.293,54.326,25.575z"/>
	<path fill="#7FBF6D" d="M59.537,29.356c-0.342-0.127-0.618-0.305-0.828-0.531c-0.06-0.072-0.09-0.141-0.09-0.207
		c0-0.104,0.048-0.193,0.144-0.271c0.072-0.053,0.147-0.08,0.226-0.08c0.102,0,0.188,0.041,0.261,0.125
		c0.145,0.17,0.334,0.299,0.572,0.389c0.236,0.09,0.499,0.135,0.787,0.135c0.42,0,0.734-0.072,0.945-0.217
		c0.209-0.145,0.317-0.332,0.323-0.566c0-0.217-0.104-0.396-0.315-0.541c-0.209-0.143-0.543-0.252-0.998-0.324
		c-0.588-0.096-1.027-0.262-1.318-0.498c-0.291-0.237-0.438-0.523-0.438-0.859c0-0.438,0.17-0.777,0.509-1.018
		s0.764-0.359,1.274-0.359c0.396,0,0.74,0.066,1.034,0.201c0.294,0.136,0.531,0.323,0.711,0.563
		c0.048,0.078,0.072,0.148,0.072,0.207c0,0.103-0.048,0.184-0.144,0.244c-0.043,0.029-0.1,0.045-0.172,0.045
		c-0.125,0-0.23-0.045-0.314-0.135c-0.295-0.336-0.696-0.505-1.206-0.505c-0.33,0-0.595,0.067-0.792,0.202
		c-0.198,0.136-0.297,0.305-0.297,0.509c0,0.216,0.093,0.389,0.279,0.518c0.186,0.13,0.516,0.233,0.989,0.311
		c0.642,0.108,1.101,0.284,1.377,0.526s0.414,0.545,0.414,0.904c0,0.277-0.083,0.521-0.247,0.738
		c-0.166,0.217-0.395,0.385-0.689,0.504c-0.293,0.121-0.627,0.18-0.998,0.18C60.235,29.543,59.878,29.481,59.537,29.356z"/>
	<path fill="#7FBF6D" d="M67.254,24.86c0.381,0.219,0.681,0.52,0.9,0.904c0.219,0.384,0.328,0.811,0.328,1.277v2.115
		c0,0.096-0.033,0.178-0.1,0.244c-0.066,0.064-0.15,0.098-0.252,0.098s-0.186-0.031-0.252-0.094s-0.099-0.146-0.099-0.248v-0.539
		c-0.21,0.287-0.478,0.514-0.802,0.68c-0.323,0.164-0.68,0.246-1.07,0.246c-0.456,0-0.869-0.109-1.237-0.328
		c-0.369-0.219-0.66-0.52-0.873-0.9c-0.214-0.381-0.319-0.805-0.319-1.273c0-0.467,0.109-0.894,0.328-1.277
		c0.219-0.385,0.52-0.686,0.9-0.904s0.805-0.328,1.273-0.328C66.449,24.532,66.874,24.641,67.254,24.86z M66.908,28.67
		c0.276-0.162,0.493-0.385,0.652-0.67s0.239-0.605,0.239-0.959s-0.08-0.673-0.239-0.958c-0.159-0.284-0.376-0.51-0.652-0.675
		s-0.585-0.248-0.927-0.248s-0.652,0.083-0.932,0.248s-0.498,0.391-0.657,0.675c-0.159,0.285-0.238,0.604-0.238,0.958
		s0.079,0.674,0.238,0.959s0.378,0.508,0.657,0.67s0.59,0.244,0.932,0.244S66.631,28.833,66.908,28.67z"/>
	<path fill="#7FBF6D" d="M72.654,24.622c0.147,0.065,0.221,0.158,0.221,0.278c0,0.036-0.003,0.063-0.009,0.081
		c-0.024,0.084-0.063,0.141-0.113,0.171s-0.121,0.046-0.211,0.046c-0.055,0-0.146-0.007-0.279-0.019
		c-0.048-0.006-0.119-0.009-0.216-0.009c-0.45,0-0.817,0.119-1.103,0.359s-0.428,0.553-0.428,0.936v2.691
		c0,0.107-0.029,0.191-0.09,0.252s-0.145,0.09-0.252,0.09s-0.191-0.029-0.252-0.09s-0.09-0.145-0.09-0.252v-4.238
		c0-0.108,0.029-0.192,0.09-0.252c0.061-0.061,0.145-0.09,0.252-0.09s0.191,0.029,0.252,0.09c0.061,0.06,0.09,0.144,0.09,0.252
		v0.396c0.174-0.252,0.396-0.446,0.666-0.585c0.271-0.138,0.562-0.207,0.873-0.207C72.307,24.522,72.506,24.555,72.654,24.622z"/>
	<path fill="#7FBF6D" d="M76.776,24.622c0.146,0.065,0.221,0.158,0.221,0.278c0,0.036-0.003,0.063-0.01,0.081
		c-0.023,0.084-0.061,0.141-0.111,0.171s-0.122,0.046-0.212,0.046c-0.054,0-0.147-0.007-0.278-0.019
		c-0.049-0.006-0.121-0.009-0.217-0.009c-0.449,0-0.817,0.119-1.103,0.359s-0.427,0.553-0.427,0.936v2.691
		c0,0.107-0.031,0.191-0.091,0.252s-0.144,0.09-0.252,0.09s-0.192-0.029-0.252-0.09s-0.09-0.145-0.09-0.252v-4.238
		c0-0.108,0.03-0.192,0.09-0.252c0.06-0.061,0.144-0.09,0.252-0.09s0.192,0.029,0.252,0.09c0.06,0.06,0.091,0.144,0.091,0.252v0.396
		c0.174-0.252,0.396-0.446,0.666-0.585c0.27-0.138,0.561-0.207,0.873-0.207C76.43,24.522,76.629,24.555,76.776,24.622z"/>
	<path fill="#7FBF6D" d="M78.567,29.219c-0.381-0.215-0.68-0.514-0.895-0.895c-0.217-0.381-0.324-0.809-0.324-1.283
		c0-0.473,0.107-0.902,0.324-1.287c0.215-0.383,0.514-0.684,0.895-0.899s0.809-0.323,1.283-0.323c0.474,0,0.9,0.107,1.277,0.323
		c0.379,0.216,0.677,0.517,0.896,0.899c0.219,0.385,0.328,0.814,0.328,1.287c0,0.475-0.108,0.902-0.324,1.283
		s-0.515,0.68-0.896,0.895c-0.381,0.217-0.809,0.324-1.282,0.324C79.375,29.543,78.948,29.436,78.567,29.219z M80.786,28.67
		c0.275-0.162,0.492-0.385,0.648-0.67s0.234-0.605,0.234-0.959c0-0.359-0.078-0.682-0.234-0.967s-0.373-0.509-0.648-0.671
		c-0.275-0.161-0.588-0.243-0.936-0.243c-0.342,0-0.652,0.082-0.932,0.243c-0.279,0.162-0.498,0.386-0.657,0.671
		s-0.238,0.607-0.238,0.967c0,0.354,0.079,0.674,0.238,0.959s0.378,0.508,0.657,0.67s0.59,0.244,0.932,0.244
		C80.198,28.915,80.51,28.833,80.786,28.67z"/>
	<path fill="#7FBF6D" d="M83.868,29.063c-0.23-0.291-0.346-0.664-0.346-1.121v-5.13c0-0.103,0.033-0.185,0.099-0.247
		c0.065-0.063,0.147-0.095,0.243-0.095c0.102,0,0.185,0.031,0.248,0.095c0.063,0.063,0.094,0.145,0.094,0.247v5.13
		c0,0.258,0.053,0.469,0.158,0.631c0.104,0.162,0.238,0.242,0.4,0.242h0.225c0.09,0,0.162,0.031,0.216,0.094
		c0.054,0.064,0.081,0.146,0.081,0.248s-0.037,0.186-0.112,0.248S85,29.499,84.88,29.499h-0.116
		C84.397,29.499,84.099,29.354,83.868,29.063z"/>
	<path fill="#7FBF6D" d="M86.407,29.063c-0.231-0.291-0.348-0.664-0.348-1.121v-5.13c0-0.103,0.033-0.185,0.1-0.247
		c0.066-0.063,0.146-0.095,0.243-0.095c0.102,0,0.185,0.031,0.247,0.095c0.063,0.063,0.095,0.145,0.095,0.247v5.13
		c0,0.258,0.052,0.469,0.157,0.631s0.238,0.242,0.4,0.242h0.226c0.09,0,0.161,0.031,0.216,0.094
		c0.055,0.064,0.081,0.146,0.081,0.248s-0.038,0.186-0.112,0.248c-0.075,0.063-0.173,0.094-0.293,0.094h-0.117
		C86.936,29.499,86.637,29.354,86.407,29.063z"/>
	<path fill="#7FBF6D" d="M92.13,24.86c0.381,0.219,0.681,0.52,0.899,0.904c0.219,0.384,0.329,0.811,0.329,1.277v2.115
		c0,0.096-0.033,0.178-0.099,0.244c-0.066,0.064-0.15,0.098-0.252,0.098c-0.103,0-0.187-0.031-0.252-0.094
		c-0.066-0.063-0.1-0.146-0.1-0.248v-0.539c-0.21,0.287-0.477,0.514-0.801,0.68c-0.324,0.164-0.682,0.246-1.071,0.246
		c-0.456,0-0.868-0.109-1.237-0.328s-0.66-0.52-0.873-0.9s-0.32-0.805-0.32-1.273c0-0.467,0.109-0.894,0.329-1.277
		c0.22-0.385,0.519-0.686,0.899-0.904c0.382-0.219,0.807-0.328,1.273-0.328C91.325,24.532,91.749,24.641,92.13,24.86z M91.784,28.67
		c0.275-0.162,0.494-0.385,0.652-0.67c0.159-0.285,0.238-0.605,0.238-0.959s-0.079-0.673-0.238-0.958
		c-0.158-0.284-0.377-0.51-0.652-0.675s-0.585-0.248-0.928-0.248c-0.342,0-0.652,0.083-0.931,0.248
		c-0.279,0.165-0.498,0.391-0.657,0.675c-0.159,0.285-0.238,0.604-0.238,0.958s0.079,0.674,0.238,0.959s0.378,0.508,0.657,0.67
		c0.278,0.162,0.589,0.244,0.931,0.244C91.199,28.915,91.508,28.833,91.784,28.67z"/>
	<path fill="#7FBF6D" d="M99.452,24.918v2.115c0,0.467-0.109,0.893-0.328,1.277c-0.22,0.385-0.52,0.686-0.9,0.904
		s-0.806,0.328-1.273,0.328c-0.469,0-0.893-0.109-1.273-0.328s-0.682-0.52-0.9-0.904s-0.328-0.811-0.328-1.277
		c0-0.469,0.105-0.893,0.319-1.273c0.213-0.382,0.504-0.682,0.873-0.9c0.368-0.219,0.781-0.328,1.237-0.328
		c0.391,0,0.747,0.082,1.07,0.246c0.324,0.166,0.592,0.393,0.802,0.68v-2.637c0-0.102,0.032-0.186,0.099-0.252
		s0.15-0.099,0.252-0.099s0.186,0.032,0.248,0.099s0.094,0.15,0.094,0.252v2.016C99.448,24.855,99.452,24.881,99.452,24.918z
		 M97.876,28.667c0.276-0.164,0.493-0.391,0.652-0.676c0.159-0.283,0.239-0.604,0.239-0.957c0-0.104-0.004-0.178-0.01-0.227
		c-0.006-0.012-0.009-0.025-0.009-0.045c-0.06-0.467-0.257-0.852-0.589-1.151c-0.334-0.3-0.737-0.45-1.211-0.45
		c-0.342,0-0.652,0.082-0.932,0.243c-0.279,0.162-0.498,0.386-0.657,0.671s-0.238,0.604-0.238,0.959
		c0,0.354,0.079,0.674,0.238,0.957c0.159,0.285,0.378,0.512,0.657,0.676c0.279,0.166,0.59,0.248,0.932,0.248
		S97.6,28.833,97.876,28.667z"/>
	<path fill="#7FBF6D" d="M102.03,29.219c-0.381-0.215-0.68-0.514-0.896-0.895s-0.324-0.809-0.324-1.283
		c0-0.473,0.108-0.902,0.324-1.287c0.216-0.383,0.515-0.684,0.896-0.899s0.809-0.323,1.282-0.323s0.9,0.107,1.278,0.323
		s0.676,0.517,0.896,0.899c0.219,0.385,0.329,0.814,0.329,1.287c0,0.475-0.109,0.902-0.324,1.283
		c-0.217,0.381-0.516,0.68-0.896,0.895c-0.381,0.217-0.809,0.324-1.282,0.324S102.411,29.436,102.03,29.219z M104.249,28.67
		c0.275-0.162,0.492-0.385,0.647-0.67c0.156-0.285,0.234-0.605,0.234-0.959c0-0.359-0.078-0.682-0.234-0.967
		c-0.155-0.285-0.372-0.509-0.647-0.671c-0.276-0.161-0.588-0.243-0.937-0.243c-0.342,0-0.652,0.082-0.931,0.243
		c-0.279,0.162-0.498,0.386-0.658,0.671c-0.158,0.285-0.238,0.607-0.238,0.967c0,0.354,0.08,0.674,0.238,0.959
		c0.16,0.285,0.379,0.508,0.658,0.67c0.278,0.162,0.589,0.244,0.931,0.244C103.661,28.915,103.972,28.833,104.249,28.67z"/>
	<path fill="#7FBF6D" d="M109.985,24.622c0.147,0.065,0.221,0.158,0.221,0.278c0,0.036-0.002,0.063-0.009,0.081
		c-0.024,0.084-0.062,0.141-0.112,0.171s-0.121,0.046-0.211,0.046c-0.055,0-0.147-0.007-0.279-0.019
		c-0.049-0.006-0.12-0.009-0.217-0.009c-0.449,0-0.816,0.119-1.102,0.359s-0.428,0.553-0.428,0.936v2.691
		c0,0.107-0.03,0.191-0.09,0.252c-0.061,0.061-0.145,0.09-0.252,0.09c-0.108,0-0.192-0.029-0.252-0.09
		c-0.061-0.061-0.09-0.145-0.09-0.252v-4.238c0-0.108,0.029-0.192,0.09-0.252c0.06-0.061,0.144-0.09,0.252-0.09
		c0.107,0,0.191,0.029,0.252,0.09c0.06,0.06,0.09,0.144,0.09,0.252v0.396c0.174-0.252,0.396-0.446,0.666-0.585
		c0.27-0.138,0.561-0.207,0.873-0.207C109.639,24.522,109.838,24.555,109.985,24.622z"/>
	<path fill="#7FBF6D" d="M117.983,24.864c0,0.055-0.014,0.108-0.037,0.162l-2.916,6.408c-0.053,0.139-0.141,0.207-0.26,0.207
		c-0.061,0-0.115-0.012-0.162-0.035c-0.139-0.055-0.207-0.145-0.207-0.271c0-0.053,0.012-0.107,0.035-0.162l0.891-1.971v-0.008
		l-2.006-4.158c-0.025-0.049-0.037-0.103-0.037-0.162c0-0.127,0.066-0.217,0.199-0.271c0.047-0.024,0.102-0.036,0.162-0.036
		c0.125,0,0.215,0.063,0.27,0.189l1.754,3.699l1.676-3.69c0.059-0.132,0.148-0.198,0.27-0.198c0.053,0,0.107,0.012,0.162,0.036
		C117.913,24.657,117.983,24.745,117.983,24.864z"/>
	<path fill="#7FBF6D" d="M126.235,24.918v2.115c0,0.467-0.109,0.893-0.328,1.277s-0.52,0.686-0.9,0.904s-0.807,0.328-1.273,0.328
		c-0.469,0-0.893-0.109-1.273-0.328s-0.682-0.52-0.9-0.904s-0.328-0.811-0.328-1.277c0-0.469,0.105-0.893,0.318-1.273
		c0.213-0.382,0.504-0.682,0.873-0.9s0.783-0.328,1.238-0.328c0.391,0,0.746,0.082,1.07,0.246c0.324,0.166,0.592,0.393,0.801,0.68
		v-2.637c0-0.102,0.033-0.186,0.1-0.252s0.15-0.099,0.252-0.099s0.186,0.032,0.248,0.099s0.094,0.15,0.094,0.252v2.016
		C126.231,24.855,126.235,24.881,126.235,24.918z M124.659,28.667c0.277-0.164,0.494-0.391,0.654-0.676
		c0.158-0.283,0.238-0.604,0.238-0.957c0-0.104-0.004-0.178-0.01-0.227c-0.006-0.012-0.01-0.025-0.01-0.045
		c-0.059-0.467-0.256-0.852-0.588-1.151c-0.334-0.3-0.736-0.45-1.211-0.45c-0.342,0-0.652,0.082-0.932,0.243
		c-0.279,0.162-0.498,0.386-0.656,0.671c-0.16,0.285-0.24,0.604-0.24,0.959c0,0.354,0.08,0.674,0.24,0.957
		c0.158,0.285,0.377,0.512,0.656,0.676c0.279,0.166,0.59,0.248,0.932,0.248S124.383,28.833,124.659,28.667z"/>
	<path fill="#7FBF6D" d="M127.995,23.497c-0.094-0.097-0.141-0.213-0.141-0.352c0-0.145,0.049-0.262,0.145-0.352
		s0.213-0.135,0.352-0.135c0.131,0,0.246,0.045,0.342,0.135s0.145,0.207,0.145,0.352c0,0.139-0.049,0.255-0.145,0.352
		c-0.096,0.096-0.213,0.144-0.352,0.144C128.204,23.64,128.086,23.592,127.995,23.497z M128.098,29.401
		c-0.066-0.066-0.1-0.15-0.1-0.252v-4.222c0-0.103,0.033-0.187,0.1-0.253c0.066-0.065,0.15-0.098,0.252-0.098
		s0.184,0.032,0.248,0.098c0.063,0.066,0.094,0.15,0.094,0.253v4.222c0,0.102-0.031,0.186-0.094,0.252
		c-0.064,0.064-0.146,0.098-0.248,0.098S128.165,29.465,128.098,29.401z"/>
	<path fill="#7FBF6D" d="M131.104,29.356c-0.342-0.127-0.619-0.305-0.828-0.531c-0.061-0.072-0.09-0.141-0.09-0.207
		c0-0.104,0.047-0.193,0.143-0.271c0.072-0.053,0.148-0.08,0.227-0.08c0.102,0,0.188,0.041,0.26,0.125
		c0.145,0.17,0.336,0.299,0.572,0.389s0.5,0.135,0.787,0.135c0.42,0,0.734-0.072,0.945-0.217c0.209-0.145,0.318-0.332,0.324-0.566
		c0-0.217-0.105-0.396-0.314-0.541c-0.211-0.143-0.545-0.252-1-0.324c-0.588-0.096-1.027-0.262-1.318-0.498
		c-0.291-0.237-0.438-0.523-0.438-0.859c0-0.438,0.17-0.777,0.51-1.018c0.338-0.24,0.764-0.359,1.273-0.359
		c0.396,0,0.74,0.066,1.035,0.201c0.293,0.136,0.531,0.323,0.711,0.563c0.047,0.078,0.072,0.148,0.072,0.207
		c0,0.103-0.049,0.184-0.145,0.244c-0.043,0.029-0.1,0.045-0.172,0.045c-0.125,0-0.23-0.045-0.314-0.135
		c-0.293-0.336-0.695-0.505-1.205-0.505c-0.33,0-0.594,0.067-0.793,0.202c-0.197,0.136-0.297,0.305-0.297,0.509
		c0,0.216,0.094,0.389,0.279,0.518c0.186,0.13,0.516,0.233,0.99,0.311c0.643,0.108,1.102,0.284,1.377,0.526s0.414,0.545,0.414,0.904
		c0,0.277-0.082,0.521-0.248,0.738c-0.164,0.217-0.395,0.385-0.688,0.504c-0.295,0.121-0.627,0.18-1,0.18
		C131.803,29.543,131.446,29.481,131.104,29.356z"/>
	<path fill="#7FBF6D" d="M138.583,24.841c0.342,0.207,0.607,0.493,0.797,0.86c0.188,0.365,0.283,0.782,0.283,1.25
		c0,0.096-0.031,0.172-0.09,0.23c-0.061,0.057-0.139,0.084-0.234,0.084h-3.637c0.049,0.492,0.24,0.893,0.576,1.197
		c0.336,0.307,0.756,0.459,1.26,0.459c0.217,0,0.434-0.037,0.652-0.111c0.219-0.076,0.395-0.17,0.527-0.283
		c0.078-0.061,0.158-0.09,0.242-0.09c0.066,0,0.133,0.023,0.199,0.07c0.078,0.072,0.117,0.154,0.117,0.244
		c0,0.078-0.033,0.146-0.1,0.207c-0.197,0.168-0.449,0.307-0.756,0.418s-0.6,0.166-0.883,0.166c-0.48,0-0.908-0.105-1.287-0.318
		c-0.377-0.213-0.674-0.51-0.887-0.891c-0.213-0.383-0.318-0.813-0.318-1.293c0-0.485,0.1-0.919,0.301-1.3
		c0.201-0.382,0.48-0.679,0.838-0.892c0.355-0.213,0.764-0.318,1.219-0.318C137.846,24.532,138.241,24.635,138.583,24.841z
		 M136.27,25.575c-0.301,0.282-0.484,0.654-0.551,1.116h3.295c-0.049-0.462-0.217-0.834-0.504-1.116
		c-0.289-0.281-0.656-0.423-1.107-0.423C136.948,25.152,136.569,25.293,136.27,25.575z"/>
	<path fill="#7FBF6D" d="M144.311,24.792c0.338,0.181,0.604,0.443,0.797,0.788c0.191,0.345,0.287,0.757,0.287,1.237v2.34
		c0,0.096-0.033,0.178-0.098,0.244c-0.066,0.064-0.148,0.098-0.244,0.098c-0.102,0-0.186-0.033-0.252-0.098
		c-0.066-0.066-0.1-0.148-0.1-0.244v-2.34c0-0.533-0.148-0.94-0.445-1.219c-0.297-0.279-0.686-0.419-1.164-0.419
		c-0.295,0-0.561,0.058-0.797,0.171c-0.238,0.113-0.426,0.271-0.563,0.473c-0.139,0.201-0.207,0.424-0.207,0.67v2.664
		c0,0.102-0.031,0.186-0.096,0.248c-0.063,0.063-0.145,0.094-0.246,0.094c-0.104,0-0.188-0.031-0.252-0.094
		c-0.066-0.063-0.1-0.146-0.1-0.248v-4.229c0-0.103,0.033-0.187,0.1-0.253c0.064-0.065,0.148-0.098,0.252-0.098
		c0.102,0,0.184,0.032,0.246,0.098c0.064,0.066,0.096,0.15,0.096,0.253v0.306c0.197-0.222,0.438-0.396,0.719-0.521
		c0.283-0.127,0.588-0.189,0.918-0.189C143.59,24.522,143.971,24.612,144.311,24.792z M143.569,23.775
		c-0.133-0.054-0.273-0.126-0.424-0.216c-0.125-0.078-0.229-0.132-0.305-0.162c-0.078-0.029-0.156-0.045-0.234-0.045
		c-0.223,0-0.42,0.105-0.594,0.314c-0.037,0.055-0.082,0.097-0.137,0.127c-0.053,0.029-0.107,0.045-0.16,0.045
		c-0.055,0-0.105-0.016-0.154-0.045c-0.041-0.024-0.076-0.059-0.104-0.104s-0.041-0.092-0.041-0.141
		c0-0.071,0.021-0.137,0.064-0.197c0.148-0.191,0.324-0.34,0.521-0.445s0.404-0.158,0.621-0.158c0.162,0,0.303,0.024,0.424,0.072
		c0.119,0.049,0.258,0.12,0.414,0.217c0.137,0.084,0.24,0.141,0.309,0.17c0.07,0.031,0.15,0.045,0.24,0.045
		c0.186,0,0.332-0.059,0.439-0.18c0.09-0.102,0.184-0.152,0.279-0.152c0.049,0,0.096,0.015,0.145,0.045
		c0.107,0.054,0.162,0.138,0.162,0.252c0,0.066-0.023,0.132-0.072,0.197c-0.24,0.295-0.555,0.441-0.945,0.441
		C143.85,23.856,143.7,23.829,143.569,23.775z"/>
	<path fill="#7FBF6D" d="M150.44,24.86c0.381,0.219,0.682,0.52,0.9,0.904c0.219,0.384,0.328,0.811,0.328,1.277v2.115
		c0,0.096-0.033,0.178-0.1,0.244c-0.066,0.064-0.15,0.098-0.252,0.098s-0.186-0.031-0.252-0.094s-0.1-0.146-0.1-0.248v-0.539
		c-0.209,0.287-0.477,0.514-0.801,0.68c-0.324,0.164-0.68,0.246-1.07,0.246c-0.455,0-0.869-0.109-1.238-0.328s-0.66-0.52-0.873-0.9
		s-0.318-0.805-0.318-1.273c0-0.467,0.109-0.894,0.328-1.277c0.219-0.385,0.52-0.686,0.9-0.904s0.805-0.328,1.273-0.328
		C149.633,24.532,150.059,24.641,150.44,24.86z M150.092,28.67c0.277-0.162,0.494-0.385,0.654-0.67
		c0.158-0.285,0.238-0.605,0.238-0.959s-0.08-0.673-0.238-0.958c-0.16-0.284-0.377-0.51-0.654-0.675
		c-0.275-0.165-0.584-0.248-0.926-0.248s-0.652,0.083-0.932,0.248s-0.498,0.391-0.656,0.675c-0.16,0.285-0.24,0.604-0.24,0.958
		s0.08,0.674,0.24,0.959c0.158,0.285,0.377,0.508,0.656,0.67s0.59,0.244,0.932,0.244S149.817,28.833,150.092,28.67z"/>
	<path fill="#7FBF6D" d="M157.76,24.918v2.115c0,0.467-0.109,0.893-0.328,1.277s-0.52,0.686-0.9,0.904s-0.805,0.328-1.273,0.328
		c-0.467,0-0.893-0.109-1.273-0.328s-0.68-0.52-0.898-0.904c-0.221-0.385-0.33-0.811-0.33-1.277c0-0.469,0.107-0.893,0.32-1.273
		c0.213-0.382,0.504-0.682,0.873-0.9s0.781-0.328,1.236-0.328c0.391,0,0.748,0.082,1.072,0.246c0.324,0.166,0.59,0.393,0.801,0.68
		v-2.637c0-0.102,0.033-0.186,0.1-0.252c0.064-0.066,0.148-0.099,0.252-0.099c0.102,0,0.184,0.032,0.246,0.099
		c0.064,0.066,0.096,0.15,0.096,0.252v2.016C157.758,24.855,157.76,24.881,157.76,24.918z M156.186,28.667
		c0.275-0.164,0.494-0.391,0.652-0.676c0.158-0.283,0.238-0.604,0.238-0.957c0-0.104-0.002-0.178-0.008-0.227
		c-0.008-0.012-0.01-0.025-0.01-0.045c-0.061-0.467-0.256-0.852-0.59-1.151c-0.332-0.3-0.736-0.45-1.211-0.45
		c-0.342,0-0.652,0.082-0.932,0.243c-0.277,0.162-0.498,0.386-0.656,0.671s-0.238,0.604-0.238,0.959c0,0.354,0.08,0.674,0.238,0.957
		c0.158,0.285,0.379,0.512,0.656,0.676c0.279,0.166,0.59,0.248,0.932,0.248S155.911,28.833,156.186,28.667z"/>
	<path fill="#7FBF6D" d="M160.34,29.219c-0.381-0.215-0.68-0.514-0.896-0.895c-0.215-0.381-0.324-0.809-0.324-1.283
		c0-0.473,0.109-0.902,0.324-1.287c0.217-0.383,0.516-0.684,0.896-0.899s0.809-0.323,1.281-0.323c0.475,0,0.9,0.107,1.279,0.323
		c0.377,0.216,0.676,0.517,0.895,0.899c0.219,0.385,0.328,0.814,0.328,1.287c0,0.475-0.107,0.902-0.324,1.283
		c-0.215,0.381-0.514,0.68-0.895,0.895c-0.381,0.217-0.809,0.324-1.283,0.324C161.149,29.543,160.721,29.436,160.34,29.219z
		 M162.559,28.67c0.275-0.162,0.49-0.385,0.646-0.67s0.234-0.605,0.234-0.959c0-0.359-0.078-0.682-0.234-0.967
		s-0.371-0.509-0.646-0.671c-0.277-0.161-0.59-0.243-0.938-0.243c-0.342,0-0.652,0.082-0.932,0.243
		c-0.277,0.162-0.498,0.386-0.656,0.671s-0.238,0.607-0.238,0.967c0,0.354,0.08,0.674,0.238,0.959s0.379,0.508,0.656,0.67
		c0.279,0.162,0.59,0.244,0.932,0.244C161.969,28.915,162.282,28.833,162.559,28.67z"/>
	<path fill="#7FBF6D" d="M168.295,24.622c0.146,0.065,0.221,0.158,0.221,0.278c0,0.036-0.004,0.063-0.01,0.081
		c-0.023,0.084-0.061,0.141-0.111,0.171s-0.121,0.046-0.213,0.046c-0.053,0-0.146-0.007-0.277-0.019
		c-0.049-0.006-0.121-0.009-0.217-0.009c-0.449,0-0.818,0.119-1.102,0.359c-0.285,0.24-0.428,0.553-0.428,0.936v2.691
		c0,0.107-0.031,0.191-0.09,0.252c-0.061,0.061-0.145,0.09-0.252,0.09c-0.109,0-0.193-0.029-0.252-0.09
		c-0.061-0.061-0.092-0.145-0.092-0.252v-4.238c0-0.108,0.031-0.192,0.092-0.252c0.059-0.061,0.143-0.09,0.252-0.09
		c0.107,0,0.191,0.029,0.252,0.09c0.059,0.06,0.09,0.144,0.09,0.252v0.396c0.174-0.252,0.395-0.446,0.666-0.585
		c0.27-0.138,0.561-0.207,0.873-0.207C167.95,24.522,168.149,24.555,168.295,24.622z"/>
	<path fill="#7FBF6D" d="M177.848,24.657c0.055,0.055,0.082,0.127,0.082,0.217c0,0.071-0.012,0.135-0.037,0.188l-1.402,4.212
		c-0.025,0.066-0.064,0.121-0.123,0.162c-0.057,0.043-0.123,0.063-0.201,0.063s-0.148-0.02-0.213-0.063
		c-0.063-0.041-0.104-0.096-0.121-0.162l-1.08-3.582l-1.08,3.582c-0.023,0.072-0.066,0.127-0.125,0.166
		c-0.061,0.039-0.127,0.059-0.199,0.059c-0.078,0-0.145-0.02-0.201-0.063c-0.059-0.041-0.102-0.096-0.131-0.162l-1.404-4.212
		c-0.018-0.071-0.027-0.135-0.027-0.188c0-0.199,0.096-0.297,0.289-0.297c0.168,0,0.281,0.086,0.342,0.26l1.152,3.51l1.061-3.5
		c0.025-0.084,0.064-0.15,0.123-0.198c0.057-0.048,0.129-0.071,0.219-0.071c0.092,0,0.164,0.023,0.221,0.071
		s0.098,0.114,0.123,0.198l1.033,3.482l1.145-3.492c0.059-0.174,0.17-0.26,0.332-0.26C177.719,24.577,177.795,24.603,177.848,24.657
		z"/>
	<path fill="#7FBF6D" d="M181.936,24.841c0.342,0.207,0.607,0.493,0.797,0.86c0.188,0.365,0.283,0.782,0.283,1.25
		c0,0.096-0.031,0.172-0.09,0.23c-0.061,0.057-0.139,0.084-0.234,0.084h-3.637c0.049,0.492,0.24,0.893,0.576,1.197
		c0.336,0.307,0.756,0.459,1.26,0.459c0.217,0,0.434-0.037,0.652-0.111c0.219-0.076,0.395-0.17,0.527-0.283
		c0.078-0.061,0.158-0.09,0.242-0.09c0.066,0,0.133,0.023,0.199,0.07c0.078,0.072,0.117,0.154,0.117,0.244
		c0,0.078-0.033,0.146-0.1,0.207c-0.197,0.168-0.449,0.307-0.756,0.418s-0.6,0.166-0.883,0.166c-0.48,0-0.908-0.105-1.287-0.318
		c-0.377-0.213-0.674-0.51-0.887-0.891c-0.213-0.383-0.318-0.813-0.318-1.293c0-0.485,0.1-0.919,0.301-1.3
		c0.201-0.382,0.48-0.679,0.838-0.892c0.355-0.213,0.764-0.318,1.219-0.318C181.2,24.532,181.594,24.635,181.936,24.841z
		 M179.624,25.575c-0.301,0.282-0.484,0.654-0.551,1.116h3.295c-0.049-0.462-0.217-0.834-0.504-1.116
		c-0.289-0.281-0.656-0.423-1.107-0.423C180.301,25.152,179.922,25.293,179.624,25.575z"/>
	<path fill="#7FBF6D" d="M187.997,24.86c0.369,0.219,0.66,0.519,0.873,0.9c0.213,0.381,0.32,0.805,0.32,1.273
		c0,0.467-0.109,0.893-0.328,1.277s-0.52,0.686-0.9,0.904s-0.805,0.328-1.273,0.328s-0.893-0.109-1.273-0.328s-0.682-0.52-0.9-0.904
		s-0.328-0.811-0.328-1.277v-2.115c0-0.037,0.002-0.063,0.01-0.082v-2.016c0-0.102,0.031-0.186,0.094-0.252s0.145-0.099,0.248-0.099
		c0.102,0,0.186,0.032,0.252,0.099c0.064,0.066,0.098,0.15,0.098,0.252v2.637c0.211-0.287,0.479-0.514,0.803-0.68
		c0.322-0.164,0.68-0.246,1.07-0.246C187.215,24.532,187.629,24.641,187.997,24.86z M187.62,28.667
		c0.279-0.164,0.498-0.391,0.656-0.676c0.16-0.283,0.238-0.604,0.238-0.957c0-0.354-0.078-0.674-0.238-0.959
		c-0.158-0.285-0.377-0.509-0.656-0.671c-0.279-0.161-0.59-0.243-0.932-0.243c-0.475,0-0.877,0.15-1.211,0.45
		c-0.332,0.3-0.529,0.685-0.59,1.151c0,0.02-0.002,0.033-0.008,0.045c-0.006,0.049-0.01,0.123-0.01,0.227
		c0,0.354,0.08,0.674,0.238,0.957c0.16,0.285,0.377,0.512,0.652,0.676c0.277,0.166,0.586,0.248,0.928,0.248
		S187.34,28.833,187.62,28.667z"/>
</g>
<g>
	<path fill="#7FBF6D" d="M52.663,10.152c0.641,0.174,1.23,0.367,1.771,0.58c0.54,0.213,1.007,0.474,1.399,0.78
		c0.394,0.307,0.701,0.673,0.92,1.1c0.221,0.427,0.33,0.934,0.33,1.52v0.06c0,0.64-0.129,1.227-0.39,1.76
		c-0.26,0.533-0.62,0.99-1.079,1.37c-0.461,0.38-1,0.673-1.621,0.88c-0.619,0.207-1.297,0.31-2.029,0.31
		c-0.68,0-1.33-0.083-1.95-0.249c-0.62-0.165-1.184-0.383-1.69-0.655c-0.506-0.271-0.949-0.579-1.33-0.923
		c-0.379-0.344-0.67-0.702-0.869-1.074l2.34-1.48c0.253,0.28,0.506,0.53,0.76,0.75c0.253,0.22,0.52,0.407,0.8,0.56
		c0.28,0.154,0.587,0.27,0.92,0.35s0.7,0.12,1.101,0.12c0.253,0,0.51-0.027,0.77-0.08s0.496-0.14,0.71-0.261
		c0.214-0.12,0.387-0.27,0.521-0.451c0.133-0.18,0.199-0.404,0.199-0.671c0-0.187-0.047-0.367-0.14-0.541
		c-0.093-0.173-0.253-0.344-0.479-0.511c-0.228-0.167-0.533-0.327-0.92-0.481s-0.874-0.304-1.461-0.451
		c-0.72-0.174-1.367-0.371-1.939-0.591c-0.574-0.22-1.061-0.487-1.46-0.801c-0.4-0.313-0.707-0.691-0.921-1.132
		c-0.213-0.44-0.319-0.961-0.319-1.563c0-0.655,0.123-1.246,0.37-1.773c0.246-0.527,0.59-0.972,1.029-1.333
		c0.44-0.361,0.957-0.638,1.551-0.831c0.593-0.194,1.23-0.291,1.91-0.291c0.706,0,1.346,0.08,1.92,0.24
		c0.572,0.16,1.086,0.363,1.539,0.61c0.453,0.247,0.851,0.527,1.191,0.84c0.34,0.313,0.623,0.617,0.85,0.91l-2.301,1.48
		c-0.572-0.546-1.116-0.93-1.629-1.15c-0.514-0.22-1.051-0.33-1.611-0.33c-0.346,0-0.643,0.043-0.889,0.13
		c-0.248,0.087-0.451,0.194-0.611,0.32c-0.159,0.127-0.283,0.27-0.369,0.43c-0.087,0.16-0.131,0.313-0.131,0.46
		c0,0.267,0.07,0.497,0.211,0.69c0.14,0.193,0.346,0.37,0.619,0.53s0.613,0.307,1.021,0.44C51.68,9.886,52.143,10.02,52.663,10.152z
		"/>
	<path fill="#7FBF6D" d="M67.663,4.333l0.021,2.34h-6.58l-0.021,9.34h6.58v2.32h-9.379v-14H67.663z M66.002,12.752h-3.119
		l-1.301-2.6h4.42V12.752z"/>
	<path fill="#7FBF6D" d="M77.483,13.732c-0.32,0.147-0.617,0.253-0.891,0.32s-0.606,0.11-1,0.13c-0.393,0.02-0.879,0.027-1.459,0.02
		s-1.33-0.01-2.25-0.01v4.14h-2.82v-14h6.34c0.68,0,1.316,0.13,1.91,0.39c0.593,0.26,1.113,0.613,1.56,1.06s0.8,0.973,1.06,1.58
		c0.261,0.607,0.391,1.25,0.391,1.93c0,1-0.264,1.894-0.79,2.68S78.323,13.346,77.483,13.732z M71.883,11.393h3.52
		c0.6,0,1.106-0.21,1.52-0.63c0.414-0.42,0.621-0.983,0.621-1.69c0-0.293-0.058-0.577-0.171-0.85s-0.267-0.517-0.46-0.73
		s-0.42-0.383-0.68-0.51c-0.26-0.126-0.537-0.19-0.83-0.19h-3.52v4.54v0.02V11.393z M80.663,18.333h-3.56l-2.14-2.64l2.34-1.52
		L80.663,18.333z"/>
	<path fill="#7FBF6D" d="M95.002,10.732c0.014,0.2,0.021,0.4,0.021,0.6c0,0.987-0.177,1.917-0.53,2.79
		c-0.354,0.874-0.84,1.633-1.46,2.28c-0.62,0.647-1.356,1.157-2.21,1.53c-0.854,0.374-1.773,0.56-2.76,0.56s-1.917-0.187-2.79-0.56
		c-0.874-0.373-1.634-0.883-2.28-1.53c-0.646-0.646-1.156-1.406-1.529-2.28c-0.374-0.873-0.561-1.803-0.561-2.79
		c0-0.986,0.187-1.917,0.561-2.79c0.373-0.873,0.883-1.633,1.529-2.28c0.646-0.647,1.406-1.157,2.28-1.53
		c0.873-0.373,1.804-0.56,2.79-0.56c1.293,0,2.47,0.31,3.529,0.93c1.061,0.62,1.91,1.437,2.551,2.45l-2.34,1.5
		c-0.36-0.72-0.871-1.297-1.53-1.73c-0.66-0.434-1.397-0.65-2.21-0.65c-0.6,0-1.16,0.124-1.68,0.37c-0.521,0.247-0.975,0.58-1.36,1
		c-0.388,0.42-0.693,0.914-0.92,1.48c-0.228,0.567-0.341,1.17-0.341,1.81s0.113,1.244,0.341,1.81c0.227,0.567,0.532,1.06,0.92,1.48
		c0.386,0.42,0.84,0.753,1.36,1c0.52,0.247,1.08,0.37,1.68,0.37c0.48,0,0.934-0.08,1.359-0.24c0.428-0.16,0.807-0.387,1.141-0.68
		c0.333-0.293,0.623-0.637,0.869-1.03c0.247-0.393,0.431-0.83,0.551-1.31h-3.801l-1.279-2.6h8.04
		C94.969,10.333,94.989,10.533,95.002,10.732z"/>
	<path fill="#7FBF6D" d="M99.143,4.333v14h-2.92v-14H99.143z"/>
	<path fill="#7FBF6D" d="M107.323,4.152c0.986,0,1.906,0.19,2.76,0.57c0.854,0.38,1.594,0.893,2.221,1.54
		c0.626,0.646,1.116,1.407,1.47,2.28c0.353,0.874,0.53,1.804,0.53,2.79c0,0.84-0.127,1.64-0.381,2.4
		c-0.253,0.76-0.613,1.447-1.08,2.06s-1.023,1.137-1.67,1.57c-0.646,0.434-1.356,0.744-2.129,0.93l-1.4-2.38
		c0.56-0.04,1.07-0.19,1.529-0.45c0.461-0.26,0.857-0.593,1.19-1c0.333-0.406,0.593-0.88,0.78-1.42
		c0.186-0.54,0.279-1.11,0.279-1.71c0-0.626-0.104-1.22-0.31-1.78c-0.207-0.56-0.49-1.047-0.851-1.46
		c-0.359-0.413-0.789-0.74-1.289-0.98c-0.5-0.24-1.051-0.36-1.65-0.36s-1.15,0.12-1.65,0.36c-0.5,0.24-0.934,0.567-1.3,0.98
		c-0.366,0.414-0.653,0.9-0.86,1.46c-0.207,0.56-0.31,1.153-0.31,1.78c0,0.627,0.103,1.22,0.31,1.78
		c0.207,0.56,0.494,1.047,0.86,1.46c0.366,0.413,0.8,0.74,1.3,0.98c0.5,0.24,1.051,0.36,1.65,0.36v2.6
		c-0.986,0-1.906-0.187-2.76-0.56c-0.854-0.373-1.594-0.887-2.221-1.54s-1.116-1.417-1.47-2.29c-0.353-0.873-0.53-1.803-0.53-2.79
		c0-0.986,0.178-1.917,0.53-2.79c0.354-0.873,0.843-1.633,1.47-2.28c0.627-0.647,1.367-1.16,2.221-1.54
		C105.417,4.342,106.336,4.152,107.323,4.152z"/>
	<path fill="#7FBF6D" d="M125.842,10.152c0.641,0.174,1.23,0.367,1.77,0.58c0.541,0.213,1.008,0.474,1.4,0.78
		c0.395,0.307,0.701,0.673,0.92,1.1c0.221,0.427,0.33,0.934,0.33,1.52v0.06c0,0.64-0.129,1.227-0.389,1.76
		c-0.262,0.533-0.621,0.99-1.08,1.37c-0.461,0.38-1,0.673-1.621,0.88c-0.619,0.207-1.297,0.31-2.029,0.31
		c-0.68,0-1.33-0.083-1.951-0.249c-0.619-0.165-1.182-0.383-1.689-0.655c-0.506-0.271-0.949-0.579-1.33-0.923
		c-0.379-0.344-0.67-0.702-0.869-1.074l2.34-1.48c0.252,0.28,0.506,0.53,0.76,0.75c0.254,0.22,0.52,0.407,0.801,0.56
		c0.279,0.154,0.586,0.27,0.92,0.35c0.332,0.08,0.699,0.12,1.1,0.12c0.252,0,0.51-0.027,0.77-0.08s0.496-0.14,0.711-0.261
		c0.213-0.12,0.385-0.27,0.52-0.451c0.133-0.18,0.199-0.404,0.199-0.671c0-0.187-0.047-0.367-0.139-0.541
		c-0.094-0.173-0.254-0.344-0.48-0.511s-0.533-0.327-0.92-0.481s-0.873-0.304-1.461-0.451c-0.719-0.174-1.367-0.371-1.939-0.591
		c-0.574-0.22-1.061-0.487-1.461-0.801c-0.398-0.313-0.707-0.691-0.92-1.132c-0.213-0.44-0.318-0.961-0.318-1.563
		c0-0.655,0.123-1.246,0.369-1.773s0.59-0.972,1.029-1.333c0.441-0.361,0.957-0.638,1.551-0.831c0.594-0.194,1.23-0.291,1.91-0.291
		c0.707,0,1.346,0.08,1.92,0.24c0.572,0.16,1.086,0.363,1.539,0.61c0.453,0.247,0.852,0.527,1.191,0.84
		c0.34,0.313,0.623,0.617,0.85,0.91l-2.301,1.48c-0.572-0.546-1.117-0.93-1.629-1.15c-0.514-0.22-1.051-0.33-1.611-0.33
		c-0.346,0-0.643,0.043-0.889,0.13c-0.248,0.087-0.451,0.194-0.611,0.32c-0.16,0.127-0.283,0.27-0.369,0.43
		c-0.088,0.16-0.131,0.313-0.131,0.46c0,0.267,0.07,0.497,0.211,0.69s0.346,0.37,0.619,0.53s0.613,0.307,1.021,0.44
		C124.86,9.886,125.323,10.02,125.842,10.152z"/>
	<path fill="#7FBF6D" d="M134.383,4.333v14h-2.92v-14H134.383z"/>
	<path fill="#7FBF6D" d="M145.163,4.333l0.02,2.34h-6.58l-0.02,9.34h6.58v2.32h-9.381v-14H145.163z M143.502,12.752h-3.121
		l-1.299-2.6h4.42V12.752z"/>
	<path fill="#7FBF6D" d="M154.981,13.732c-0.32,0.147-0.617,0.253-0.889,0.32c-0.273,0.067-0.607,0.11-1,0.13
		c-0.395,0.02-0.881,0.027-1.461,0.02s-1.33-0.01-2.25-0.01v4.14h-2.82v-14h6.34c0.68,0,1.316,0.13,1.91,0.39
		c0.594,0.26,1.113,0.613,1.561,1.06s0.799,0.973,1.061,1.58c0.26,0.607,0.389,1.25,0.389,1.93c0,1-0.264,1.894-0.789,2.68
		C156.504,12.759,155.821,13.346,154.981,13.732z M149.381,11.393h3.52c0.6,0,1.107-0.21,1.52-0.63
		c0.414-0.42,0.621-0.983,0.621-1.69c0-0.293-0.057-0.577-0.17-0.85s-0.268-0.517-0.461-0.73s-0.42-0.383-0.68-0.51
		c-0.26-0.126-0.537-0.19-0.83-0.19h-3.52v4.54v0.02V11.393z M158.161,18.333h-3.559l-2.141-2.64l2.34-1.52L158.161,18.333z"/>
	<path fill="#7FBF6D" d="M167.481,13.732c-0.32,0.147-0.617,0.253-0.889,0.32c-0.273,0.067-0.607,0.11-1,0.13
		c-0.395,0.02-0.881,0.027-1.461,0.02s-1.33-0.01-2.25-0.01v4.14h-2.82v-14h6.34c0.68,0,1.316,0.13,1.91,0.39
		c0.594,0.26,1.113,0.613,1.561,1.06s0.799,0.973,1.061,1.58c0.26,0.607,0.389,1.25,0.389,1.93c0,1-0.264,1.894-0.789,2.68
		C169.004,12.759,168.321,13.346,167.481,13.732z M161.881,11.393h3.52c0.6,0,1.107-0.21,1.52-0.63
		c0.414-0.42,0.621-0.983,0.621-1.69c0-0.293-0.057-0.577-0.17-0.85s-0.268-0.517-0.461-0.73s-0.42-0.383-0.68-0.51
		c-0.26-0.126-0.537-0.19-0.83-0.19h-3.52v4.54v0.02V11.393z M170.661,18.333h-3.559l-2.141-2.64l2.34-1.52L170.661,18.333z"/>
	<path fill="#7FBF6D" d="M180.061,15.853h-6.4l-1.059,2.48h-3l5.74-14h3.02l-3.701,9.02h4.381l-1.98-4.8l2.26-1.94l4.781,11.72h-3
		L180.061,15.853z"/>
</g>
<g>
	<g>
		<path fill="#7FBF6D" d="M9.48,12.083c0,0.888-0.154,1.725-0.462,2.513c-0.309,0.788-0.721,1.491-1.237,2.106
			c0.517,0.59,0.929,1.287,1.237,2.086C9.326,19.59,9.48,20.433,9.48,21.32v2.919c0,0.789,0.284,1.465,0.851,2.031
			s1.23,0.85,1.995,0.85v4.617c-1.035,0-2.003-0.195-2.901-0.59s-1.688-0.932-2.365-1.607c-0.676-0.678-1.213-1.472-1.605-2.384
			c-0.395-0.911-0.592-1.884-0.592-2.917V21.32c0-0.615-0.227-1.146-0.683-1.589c-0.456-0.442-1.004-0.665-1.645-0.665H1.871v-4.729
			h0.664c0.641,0,1.188-0.215,1.645-0.646c0.456-0.431,0.683-0.967,0.683-1.608V9.203c0-1.035,0.197-2.014,0.592-2.937
			c0.393-0.924,0.93-1.724,1.605-2.402c0.678-0.677,1.467-1.212,2.365-1.607c0.898-0.394,1.866-0.591,2.901-0.591v4.655
			c-0.37,0-0.728,0.074-1.072,0.222s-0.646,0.351-0.905,0.609C10.089,7.411,9.88,7.718,9.72,8.076C9.56,8.432,9.48,8.809,9.48,9.203
			V12.083z"/>
		<path fill="#7FBF6D" d="M24.154,14.726c1.157,0.313,2.226,0.664,3.202,1.049c0.977,0.386,1.82,0.857,2.531,1.411
			c0.711,0.556,1.266,1.218,1.664,1.989c0.398,0.773,0.598,1.688,0.598,2.75v0.109c0,1.156-0.235,2.219-0.705,3.182
			c-0.471,0.967-1.121,1.791-1.954,2.479c-0.832,0.687-1.81,1.218-2.931,1.591c-1.121,0.375-2.345,0.561-3.671,0.561
			c-1.23,0-2.405-0.15-3.526-0.449c-1.123-0.299-2.142-0.693-3.057-1.184c-0.918-0.49-1.719-1.047-2.406-1.67
			c-0.688-0.621-1.212-1.27-1.573-1.941l4.231-2.678c0.457,0.508,0.917,0.959,1.375,1.357c0.458,0.397,0.94,0.734,1.446,1.012
			c0.507,0.277,1.062,0.488,1.665,0.634c0.602,0.145,1.266,0.216,1.989,0.216c0.458,0,0.922-0.047,1.393-0.144
			s0.897-0.254,1.284-0.472c0.385-0.218,0.699-0.488,0.941-0.814c0.24-0.326,0.361-0.731,0.361-1.215
			c0-0.338-0.086-0.663-0.254-0.979c-0.169-0.313-0.459-0.621-0.868-0.923c-0.41-0.302-0.964-0.592-1.663-0.87
			c-0.701-0.278-1.581-0.55-2.641-0.816c-1.303-0.313-2.473-0.668-3.51-1.069c-1.037-0.398-1.916-0.881-2.641-1.449
			c-0.723-0.567-1.278-1.25-1.664-2.047c-0.385-0.796-0.578-1.739-0.578-2.826c0-1.183,0.223-2.251,0.669-3.207
			c0.446-0.954,1.067-1.757,1.862-2.409c0.796-0.653,1.73-1.154,2.805-1.504c1.072-0.351,2.224-0.526,3.453-0.526
			c1.279,0,2.437,0.145,3.474,0.435c1.036,0.289,1.966,0.657,2.786,1.103c0.818,0.446,1.537,0.953,2.15,1.52
			c0.615,0.567,1.129,1.115,1.539,1.646l-4.16,2.676c-1.038-0.988-2.021-1.683-2.949-2.08s-1.899-0.596-2.912-0.596
			c-0.627,0-1.162,0.078-1.609,0.234c-0.446,0.158-0.813,0.35-1.102,0.579c-0.291,0.229-0.514,0.488-0.67,0.777
			c-0.158,0.29-0.236,0.567-0.236,0.832c0,0.482,0.128,0.899,0.38,1.249c0.254,0.35,0.627,0.668,1.122,0.958
			c0.494,0.29,1.108,0.555,1.845,0.795C22.375,14.244,23.213,14.486,24.154,14.726z"/>
		<path fill="#7FBF6D" d="M34.993,9.203c0-0.394-0.08-0.771-0.24-1.126c-0.16-0.358-0.369-0.666-0.627-0.924
			c-0.26-0.259-0.563-0.461-0.906-0.609c-0.345-0.148-0.701-0.222-1.07-0.222V1.666c1.033,0,1.999,0.197,2.898,0.591
			c0.899,0.395,1.687,0.93,2.365,1.607c0.678,0.678,1.213,1.478,1.607,2.402c0.393,0.923,0.59,1.902,0.59,2.937v2.881
			c0,0.641,0.229,1.177,0.684,1.608c0.456,0.43,1.004,0.646,1.645,0.646h0.665v4.729h-0.665c-0.641,0-1.188,0.223-1.645,0.665
			c-0.455,0.443-0.684,0.974-0.684,1.589v2.919c0,1.033-0.197,2.006-0.59,2.917c-0.395,0.912-0.93,1.706-1.607,2.384
			c-0.679,0.676-1.466,1.213-2.365,1.607s-1.865,0.59-2.898,0.59V27.12c0.762,0,1.428-0.283,1.994-0.85
			c0.565-0.566,0.85-1.242,0.85-2.031V21.32c0-0.887,0.153-1.729,0.462-2.531c0.308-0.799,0.72-1.496,1.237-2.086
			c-0.518-0.616-0.93-1.318-1.237-2.106c-0.309-0.788-0.462-1.625-0.462-2.513V9.203z"/>
	</g>
</g>
</svg>
