<?xml version="1.0" encoding="utf-8"?>
<!-- Generator: Adobe Illustrator 16.0.0, SVG Export Plug-In . SVG Version: 6.00 Build 0)  -->
<!DOCTYPE svg PUBLIC "-//W3C//DTD SVG 1.1//EN" "http://www.w3.org/Graphics/SVG/1.1/DTD/svg11.dtd">
<svg version="1.1" id="Capa_1" xmlns="http://www.w3.org/2000/svg" xmlns:xlink="http://www.w3.org/1999/xlink" x="0px" y="0px"
	 width="733px" height="211px" viewBox="0 0 733 211" enable-background="new 0 0 733 211" xml:space="preserve">
<g>
	<path fill="#7F98B6" d="M230.586,72.145v6.54h-18.685v56.985h18.685v6.539h-44.608v-6.539h18.684V78.685h-18.684v-6.54H230.586z"/>
	<path fill="#7F98B6" d="M263.05,72.145l32.345,56.635h0.234V78.685h-10.976v-6.54h25.572v6.54h-7.357v63.524h-7.474l-33.162-57.336
		v50.797h10.742v6.539h-26.623v-6.539h8.641V78.685h-8.641v-6.54H263.05z"/>
	<path fill="#7F98B6" d="M375.387,135.67h5.838v6.539h-23.587v-6.539h10.042l-5.605-15.064h-27.791l-5.489,15.064h10.16v6.539H315.6
		v-6.539h5.838l26.508-70.064L375.387,135.67z M347.945,81.954l-11.444,32.113h23.238L347.945,81.954z"/>
	<path fill="#7F98B6" d="M403.181,72.145l32.346,56.635h0.233V78.685h-10.977v-6.54h25.573v6.54H443v63.524h-7.474l-33.163-57.336
		v50.797h10.742v6.539h-26.623v-6.539h8.641V78.685h-8.641v-6.54H403.181z"/>
	<path fill="#7F98B6" d="M509.211,70.744l6.539,2.102c-1.634,3.854-2.335,8.058-2.101,12.261l0.584,8.875l-6.891,1.167
		c-0.466-10.742-3.152-17.865-15.297-17.865c-16.231,0-21.72,16.23-21.72,29.777c0,13.195,5.839,30.011,21.486,30.011
		c11.91,0,16.348-7.941,16.348-18.917h7.24v14.947c-6.539,6.306-14.714,10.509-23.939,10.509c-12.61,0-28.726-9.691-28.726-37.133
		c0-26.74,16.115-35.732,28.96-35.732c5.488,0,11.21,1.519,15.998,3.971L509.211,70.744z"/>
	<path fill="#7F98B6" d="M580.912,72.145v6.54h-18.684v56.985h18.684v6.539h-44.607v-6.539h18.683V78.685h-18.683v-6.54H580.912z"/>
	<path fill="#7F98B6" d="M655.646,135.67h5.839v6.539h-23.588v-6.539h10.042l-5.605-15.064h-27.791l-5.487,15.064h10.159v6.539
		h-23.355v-6.539h5.838l26.509-70.064L655.646,135.67z M628.206,81.954l-11.443,32.113H640L628.206,81.954z"/>
	<path fill="#7F98B6" d="M701.89,72.145v6.54h-13.194v56.985h18.45c12.844,0,12.495-2.219,12.495-14.713v-3.271h7.239v24.523
		h-58.037v-6.539h12.613V78.685h-12.613v-6.54H701.89z"/>
</g>
<g>
	<path fill-rule="evenodd" clip-rule="evenodd" fill="#7F98B6" d="M39.491,137.527H13.094l-2.988-22.412h24.966
		c-0.424-5.286-0.424-10.591,0-15.878H7.988L5,76.826h34.491c13.14-40.968,51.438-69.14,94.751-69.14
		c22.972,0,42.132,7.192,60.548,20.574L183.569,53.06c-15.064-12.209-29.464-19.034-49.327-19.034
		c-28.795,0-54.721,16.953-66.539,42.8h105.111l-10.143,22.411H61.525c-0.576,5.276-0.576,10.602,0.001,15.878h93.962
		l-10.143,22.412H67.704h-0.001c11.818,25.848,37.744,42.8,66.539,42.8c19.863,0,34.263-6.824,49.327-19.033l11.221,24.799
		c-18.416,13.383-37.576,20.574-60.548,20.574C90.929,206.667,52.631,178.495,39.491,137.527L39.491,137.527z"/>
</g>
</svg>
